HIERARCHY
ROOT Bip001_Pelvis
{
  OFFSET 34.4345 95.6767 -26.8758
  CHANNELS 6 Xposition Yposition Zposition Zrotation Xrotation Yrotation
  JOINT Bip001_Spine
  {
    OFFSET 1.4188e-005 10.2191 -0.0116013
    CHANNELS 3 Zrotation Xrotation Yrotation
    JOINT Bip001_L_Thigh
    {
      OFFSET 11.0458 -10.2192 0.0116197
      CHANNELS 3 Zrotation Xrotation Yrotation
      JOINT Bip001_L_Calf
      {
        OFFSET -0.707118 -44.0221 0.360014
        CHANNELS 3 Zrotation Xrotation Yrotation
        JOINT Bip001_L_Foot
        {
          OFFSET -0.651902 -40.5938 -3.56146
          CHANNELS 3 Zrotation Xrotation Yrotation
          JOINT Bip001_L_Toe0
          {
            OFFSET 0.0530839 -10.2181 13.1504
            CHANNELS 3 Zrotation Xrotation Yrotation
            End Site
            {
              OFFSET -1.02532e-005 0 7.55606
            }
          }
        }
      }
    }
    JOINT Bip001_R_Thigh
    {
      OFFSET -11.0458 -10.2191 0.0115893
      CHANNELS 3 Zrotation Xrotation Yrotation
      JOINT Bip001_R_Calf
      {
        OFFSET 0.706994 -44.0221 0.35984
        CHANNELS 3 Zrotation Xrotation Yrotation
        JOINT Bip001_R_Foot
        {
          OFFSET 0.651786 -40.5938 -3.5613
          CHANNELS 3 Zrotation Xrotation Yrotation
          JOINT Bip001_R_Toe0
          {
            OFFSET -0.0531479 -10.2181 13.1504
            CHANNELS 3 Zrotation Xrotation Yrotation
            End Site
            {
              OFFSET -1.02894e-005 0 7.55606
            }
          }
        }
      }
    }
    JOINT Bip001_Spine1
    {
      OFFSET 1.87041e-005 14.5736 1.08638
      CHANNELS 3 Zrotation Xrotation Yrotation
      JOINT Bip001_Spine2
      {
        OFFSET 2.24614e-005 14.5058 -1.69078
        CHANNELS 3 Zrotation Xrotation Yrotation
        JOINT Bip001_Neck
        {
          OFFSET 2.20278e-005 15.3945 -0.489414
          CHANNELS 3 Zrotation Xrotation Yrotation
          JOINT Bip001_L_Clavicle
          {
            OFFSET 6.06036 -0.000579998 0.00836775
            CHANNELS 3 Zrotation Xrotation Yrotation
            JOINT Bip001_L_UpperArm
            {
              OFFSET 11.5509 -0.0600302 0.00193952
              CHANNELS 3 Zrotation Xrotation Yrotation
              JOINT Bip001_L_Forearm
              {
                OFFSET 25.9523 0.0806089 -2.15551
                CHANNELS 3 Zrotation Xrotation Yrotation
                JOINT Bip001_L_Hand
                {
                  OFFSET 32.2475 0.153767 1.63968
                  CHANNELS 3 Zrotation Xrotation Yrotation
                  JOINT Bip001_L_Finger0
                  {
                    OFFSET 6.04639 -2.20976 5.90322
                    CHANNELS 3 Zrotation Xrotation Yrotation
                    End Site
                    {
                      OFFSET 4.22375 -1.43895 0.606485
                    }
                  }
                  JOINT Bip001_L_Finger1
                  {
                    OFFSET 11.0826 -0.704819 -0.198153
                    CHANNELS 3 Zrotation Xrotation Yrotation
                    End Site
                    {
                      OFFSET 6.20027 -0.397518 -0.0787166
                    }
                  }
                }
              }
            }
          }
          JOINT Bip001_R_Clavicle
          {
            OFFSET -6.06037 -0.000563197 0.00835105
            CHANNELS 3 Zrotation Xrotation Yrotation
            JOINT Bip001_R_UpperArm
            {
              OFFSET -11.5509 -0.0599978 0.00190698
              CHANNELS 3 Zrotation Xrotation Yrotation
              JOINT Bip001_R_Forearm
              {
                OFFSET -25.9523 0.0806822 -2.15589
                CHANNELS 3 Zrotation Xrotation Yrotation
                JOINT Bip001_R_Hand
                {
                  OFFSET -32.2475 0.153859 1.63989
                  CHANNELS 3 Zrotation Xrotation Yrotation
                  JOINT Bip001_R_Finger0
                  {
                    OFFSET -6.04641 -2.20976 5.90317
                    CHANNELS 3 Zrotation Xrotation Yrotation
                    End Site
                    {
                      OFFSET -4.22376 -1.43895 0.60647
                    }
                  }
                  JOINT Bip001_R_Finger1
                  {
                    OFFSET -11.0826 -0.704794 -0.198182
                    CHANNELS 3 Zrotation Xrotation Yrotation
                    End Site
                    {
                      OFFSET -6.20028 -0.397504 -0.0787333
                    }
                  }
                }
              }
            }
          }
          JOINT Bip001_Head
          {
            OFFSET 1.09673e-005 11.2744 2.05948
            CHANNELS 3 Zrotation Xrotation Yrotation
            End Site
            {
              OFFSET 2.89576e-005 20.8808 -2.77728e-005
            }
          }
        }
      }
    }
  }
}
MOTION
Frames:	16
Frame Time:	0.04
32.6423 95.8273 -31.3604 -0.39948 -2.18725 -8.89622 0.472068 2.36239 -1.50185 5.0801 1.09638 15.799 0.342846 6.69668 2.2887 1.05247 -3.87807 -0.00351725 1.27509 -4.96245 -0.397965 -3.98346 -4.65726 3.20089 0.606793 11.1476 0.13193 -4.72324 -8.19174 2.10222 2.05095 -7.11259 2.27664 1.00728 4.71151 -3.02701 1.00728 4.7115 -3.02701 6.35129 3.00749 6.6814 -28.7707 2.98466 -12.081 -54.4971 37.5529 1.5992 14.2461 -7.38073 -29.4254 9.10822 0.24527 -3.43727 -3.18055e-015 -3.18055e-015 1.59028e-015 -3.18055e-015 -3.18056e-015 3.18055e-015 21.2436 0.889896 9.40554 53.5995 20.7449 -3.13457 -24.1854 18.8428 21.6222 -14.3268 -5.14433 4.16397 -0 -3.18055e-015 -0 -3.18055e-015 -6.36111e-015 -0 -10.9661 -12.0902 10.1422 
32.6156 95.8271 -31.2213 -0.476367 -2.23106 -9.34862 0.51659 2.40014 -1.55189 5.06727 1.38763 16.0652 0.28445 6.53452 2.50172 1.06847 -3.86513 -0.0035172 1.2838 -5.00635 -0.420685 -3.98727 -4.58719 3.31904 0.630332 11.0437 0.147521 -4.60426 -8.21048 2.38836 2.04149 -7.06839 2.25942 1.09956 4.78529 -3.12949 1.09956 4.78529 -3.12948 6.06639 3.30036 7.15337 -28.5796 2.93879 -12.6294 -54.8049 38.3352 1.67512 14.0029 -7.6801 -28.6721 8.93793 0.536887 -3.41733 3.18055e-015 0 -0 3.18055e-015 0 -1.59028e-015 21.1789 0.260684 8.66704 55.2394 21.3572 -4.64963 -25.0002 15.917 21.8596 -12.4618 -5.40861 3.6269 3.18055e-015 3.18055e-015 6.36111e-015 4.77083e-015 9.54167e-015 3.18055e-015 -11.0399 -12.2967 10.5342 
32.6135 95.8396 -31.0709 -0.523316 -2.11184 -9.802 0.516179 2.37191 -1.6123 4.97896 1.67922 16.3205 0.333767 6.13085 2.68812 1.21926 -3.66537 -0.00351639 1.34078 -5.16735 -0.434302 -3.98835 -4.52819 3.39133 0.639031 10.7786 -0.00934469 -4.3821 -8.21368 2.90253 1.98452 -6.91547 2.24154 1.11432 4.72805 -3.25038 1.1134 4.72806 -3.25045 5.86211 3.84305 7.62144 -28.3569 2.5352 -12.9244 -55.4546 39.1542 2.03071 14.2207 -7.43888 -27.7038 8.28602 0.814327 -3.11611 5.29669e-031 6.36111e-015 -4.77083e-015 7.94503e-031 9.54167e-015 -4.77083e-015 21.2465 -0.707223 7.63037 56.6071 22.3116 -5.98346 -26.6254 14.3683 23.1002 -9.55786 -5.43696 3.56678 -3.18055e-015 3.18055e-015 -6.36111e-015 -4.77083e-015 6.36111e-015 -6.36111e-015 -10.9843 -12.6993 10.9369 
32.6331 95.8605 -30.9277 -0.477829 -1.95931 -10.064 0.513036 2.29821 -1.64589 4.79413 1.96164 16.4874 0.422666 5.60659 2.75682 1.35583 -3.37471 -0.00750108 1.36875 -5.28875 -0.433459 -4.00139 -4.45233 3.31141 0.509624 10.5358 0.118779 -4.22264 -8.16124 3.18443 1.9667 -6.85828 2.21925 1.08285 4.58075 -3.31626 1.08333 4.58076 -3.31614 5.62434 4.64749 7.91849 -28.1421 1.88463 -13.4346 -56.27 39.64 2.76235 14.3319 -7.05798 -26.8164 7.91594 0.886182 -2.8679 -6.36111e-015 3.18055e-015 -3.18055e-015 -3.18055e-015 3.18056e-015 -3.18055e-015 21.1512 -1.91973 6.67161 58.3999 23.3608 -6.83797 -28.011 10.6194 23.051 -7.26346 -5.80495 4.17205 7.95139e-015 -6.36111e-015 -3.18055e-015 6.36111e-015 -9.54167e-015 -6.36111e-015 -10.8668 -13.1919 11.1596 
32.6414 95.8524 -30.8123 -0.420718 -1.76951 -10.1817 0.510909 2.21469 -1.67876 4.66852 2.03605 16.7704 0.482906 5.34781 2.57213 1.90304 -2.97017 -0.0286951 1.55432 -5.54199 -0.601198 -4.06083 -4.53271 3.37797 0.544735 10.5634 0.119451 -4.14004 -8.22032 3.2639 1.93759 -6.77227 2.19939 1.07034 4.41363 -3.38052 1.07243 4.41364 -3.38065 5.44666 5.47038 8.08281 -28.1573 1.19464 -13.8252 -56.886 39.8806 3.57248 14.3966 -6.53126 -26.0901 7.68821 0.985305 -2.74085 -3.18055e-015 -3.18055e-015 4.77083e-015 -6.36111e-015 -3.18056e-015 3.18055e-015 20.886 -3.0439 5.98567 59.9941 24.0163 -7.27398 -28.4225 5.07959 21.9068 -7.54295 -6.10994 3.52447 7.95139e-015 3.18055e-015 -0 4.77083e-015 3.18056e-015 -3.18055e-015 -10.7782 -13.7069 11.2709 
32.64 95.8903 -30.7101 -0.456761 -1.6918 -10.1319 0.511894 2.18387 -1.75151 4.71202 2.19965 16.9035 0.418808 5.09422 2.53091 1.60401 -3.07517 -0.0220061 1.41127 -5.31967 -0.489257 -4.09687 -4.3681 3.44851 0.66573 10.2669 -0.337061 -4.01354 -8.14998 3.57636 1.90791 -6.68955 2.18478 1.08761 4.35104 -3.52617 1.08562 4.35098 -3.5262 5.05185 5.90191 8.3562 -27.8624 0.720926 -13.6979 -57.4271 40.2157 4.16981 14.3862 -6.37013 -25.5755 7.56926 1.11879 -2.69196 0 0 -3.18055e-015 -3.18055e-015 0 -3.18055e-015 21.0901 -3.58983 5.89764 61.0922 23.866 -7.77108 -29.3962 0.390791 20.5859 -8.88557 -6.53117 2.32492 1.59028e-015 3.18055e-015 3.18055e-015 -7.95139e-016 1.59028e-015 3.18055e-015 -10.5012 -13.8853 11.3931 
32.6521 95.8675 -30.6251 -0.506877 -1.76327 -9.86863 0.51143 2.18917 -1.77818 4.8735 2.14293 15.8155 0.187633 5.42095 3.39047 1.5504 -3.31712 -0.0140274 1.33811 -5.24793 -0.432439 -3.95866 -4.16005 3.40947 0.476556 10.2002 -0.0312516 -4.18727 -8.10946 3.12413 1.96516 -6.86058 2.22855 1.09184 4.3613 -3.57977 1.09184 4.3613 -3.57978 4.63244 5.76899 8.54587 -27.4582 0.72723 -13.3566 -57.7917 40.4934 4.723 14.368 -6.35702 -25.124 7.28024 1.14545 -2.97845 1.76556e-031 -3.18055e-015 3.18055e-015 1.76556e-031 -3.18056e-015 3.18055e-015 21.4829 -3.56674 5.77028 61.8037 21.5172 -9.40672 -32.2333 -2.5107 22.082 -9.95384 -6.69885 0.707144 9.93923e-015 6.36111e-015 -3.18055e-015 6.75868e-015 4.77083e-015 -0 -10.1677 -13.6706 11.4125 
32.7222 95.8357 -30.5122 -0.473017 -1.75272 -9.62154 0.478665 2.20104 -1.67194 4.9564 1.88026 17.4449 0.264752 5.98389 1.39065 1.70447 -3.63199 -0.0128254 1.31434 -5.26439 -0.398179 -4.00025 -4.13527 3.32508 0.486554 10.3378 -0.149313 -4.29154 -8.2338 2.93687 2.02019 -7.04358 2.29828 1.02242 4.38706 -3.36567 1.0225 4.38698 -3.36581 4.14386 5.25 8.5797 -27.1216 1.1212 -12.9967 -57.4831 40.7966 5.18149 14.4988 -6.21706 -25.4989 6.87549 1.26723 -2.40388 -3.18055e-015 0 1.59028e-015 0 0 -0 22.054 -3.22385 5.40922 61.7412 16.2293 -11.6419 -37.0667 -2.64034 26.6797 -12.0994 -7.41518 -0.108965 -9.93923e-015 0 -0 -9.93923e-015 7.95139e-016 -3.18055e-015 -9.75128 -13.2111 11.2326 
32.7916 95.8299 -30.4735 -0.528974 -1.59837 -8.67978 0.452086 2.15737 -1.65447 5.33814 1.35932 16.2665 -0.133762 6.58555 1.68645 1.96663 -3.83002 -0.0112271 1.33701 -5.28071 -0.432307 -3.92714 -3.83718 2.58453 0.440536 9.92514 -0.241693 -4.35987 -8.13066 2.75442 2.10001 -7.2949 2.381 0.967699 4.30079 -3.32614 0.967378 4.3008 -3.32554 3.67367 4.72244 8.62024 -26.7921 1.47252 -12.4596 -57.303 41.3812 5.77901 15.0912 -5.87354 -25.762 6.88059 0.961974 -2.35055 -3.18055e-015 0 -0 -3.18055e-015 -3.18056e-015 -1.59028e-015 22.3979 -2.88813 4.97519 60.4264 8.88944 -13.2921 -42.554 -2.41652 33.0814 -14.034 -7.64207 0.575441 -3.18055e-015 3.97569e-016 -3.18055e-015 -6.75868e-015 1.19271e-015 -0 -9.29075 -12.5191 11.0763 
32.8397 95.8224 -30.3017 -0.734121 -1.74753 -7.28157 0.426547 2.15368 -1.66522 5.90009 1.00315 16.5983 -0.32014 7.49667 0.177734 1.72315 -4.54941 0.00473937 1.25594 -4.96051 -0.439111 -3.68914 -3.00646 1.48389 0.271345 9.35001 -0.150673 -4.53679 -7.99585 2.43891 2.17563 -7.52724 2.45308 0.914711 4.29412 -3.34841 0.915788 4.29411 -3.34943 3.23839 4.48947 8.61175 -26.4326 1.48834 -11.8955 -57.1689 41.8253 5.97805 15.1558 -6.5258 -25.6451 7.36569 1.35037 -2.41856 -9.54166e-015 -3.18055e-015 1.59028e-015 -6.36111e-015 0 -0 22.5862 -2.70944 4.95266 57.1318 -3.00748 -15.169 -47.6005 -2.75222 43.9786 -16.1385 -6.4364 1.5421 3.97569e-016 -4.77083e-015 -6.36111e-015 -2.42765e-031 -4.37326e-015 -3.18055e-015 -8.88161 -11.9366 10.8966 
33.0142 95.8227 -30.2749 -0.83073 -1.53439 -5.76263 0.36128 2.08549 -1.59626 6.24841 0.218989 15.1214 -0.504589 8.21462 0.326955 1.57965 -5.01542 0.017972 1.20771 -4.69673 -0.454825 -3.52794 -2.72123 0.916436 0.282035 9.04348 -0.193685 -4.97927 -7.75674 1.57343 2.27784 -7.83341 2.54193 0.781804 4.16001 -3.20934 0.781565 4.16002 -3.20911 3.11391 3.8438 8.32922 -26.1728 1.85113 -11.1846 -56.6717 41.0937 5.47549 15.1907 -5.80465 -25.3313 7.74282 1.15032 -2.4949 -3.18055e-015 0 -1.59028e-015 -3.18055e-015 3.18056e-015 -1.59028e-015 22.4682 -2.10433 4.74748 50.6678 -20.4832 -18.2893 -48.8973 -1.48289 61.6305 -18.2927 -5.77559 2.79713 -1.59028e-015 0 -3.18055e-015 3.18055e-015 3.18056e-015 -3.18055e-015 -8.53841 -10.9368 10.5528 
33.1629 95.8027 -30.1932 -0.985689 -1.45966 -3.73568 0.260158 2.04074 -1.53167 6.72825 -0.682583 14.1777 -0.628824 9.23879 -0.647614 1.90422 -5.36528 0.022913 1.29299 -4.74882 -0.545588 -3.20673 -2.14035 -0.023951 0.168101 8.64533 -0.175491 -5.41383 -7.51101 0.612806 2.3828 -8.1376 2.62173 0.575393 4.07377 -3.07552 0.575394 4.07378 -3.07552 3.15548 2.71856 7.85101 -25.928 2.6135 -10.2674 -56.3768 40.5493 5.36245 15.3712 -5.63674 -25.5261 7.97371 1.06221 -2.47061 3.18055e-015 0 -4.77083e-015 -3.18055e-015 -3.18056e-015 -4.77083e-015 22.6597 -0.975802 4.48748 39.6055 -39.552 -23.9135 -47.7653 3.03888 81.6046 -22.6287 -5.77708 2.87568 0 0 -3.18055e-015 -3.53113e-031 -3.18056e-015 -6.36111e-015 -7.94066 -9.62377 10.0259 
33.3813 95.7866 -30.1411 -1.00123 -1.40795 -1.45352 0.115717 2.00422 -1.39903 7.0672 -1.63593 13.1496 -0.723289 10.21 -1.72308 1.75681 -5.92057 0.0293886 1.25746 -4.45522 -0.605259 -3.06658 -1.59852 -0.700286 0.227836 8.23913 -0.263482 -6.14386 -7.22752 -1.25803 2.44726 -8.77689 3.2943 0.280672 4.0048 -2.80469 0.280672 4.00473 -2.80468 3.50973 1.50674 6.82118 -25.7967 3.43343 -9.55838 -56.9783 41.0587 6.4203 15.6913 -7.09505 -26.6105 8.5119 1.03224 -1.8697 -6.36111e-015 -6.36111e-015 3.18055e-015 -6.36111e-015 -6.36111e-015 4.77083e-015 22.515 0.752948 5.52356 32.9337 -48.5055 -27.0591 -44.0794 0.797715 91.7713 -25.237 -5.71413 3.21071 3.18055e-015 -3.18055e-015 3.18055e-015 1.76556e-031 -3.18056e-015 3.18055e-015 -7.42667 -8.60971 9.03047 
33.6794 95.7368 -30.0114 -0.702627 -1.27047 1.29318 -0.0607004 1.95062 -1.26855 6.9221 -2.5851 12.1624 -0.633805 10.8336 -3.44833 2.07774 -6.03111 0.0334498 1.3457 -4.45873 -0.747607 -3.27615 -1.22892 -2.60784 0.239629 8.49751 -0.290416 -6.49841 -7.42132 -1.96867 2.56128 -9.00013 3.27478 -0.0783079 3.903 -2.5372 -0.0783071 3.90332 -2.53721 3.74427 -0.338355 5.61304 -26.1655 4.78319 -8.22547 -56.8516 42.2059 7.20332 15.4208 -9.563 -27.7672 8.56275 0.969056 -1.4468 -0 0 3.18055e-015 3.18055e-015 -3.18056e-015 -0 22.3341 3.26257 6.88823 26.7393 -55.9217 -28.5529 -41.065 -0.53858 99.2081 -28.9431 -4.66852 3.30891 -3.18055e-015 -6.36111e-015 3.18055e-015 3.53113e-031 -6.36111e-015 3.18055e-015 -6.88706 -6.86983 7.81639 
33.8996 95.6891 -29.9728 -0.644812 -0.834562 4.2504 -0.178594 1.83423 -1.08271 6.93655 -3.92021 10.1069 -0.719386 11.5318 -4.48098 2.76869 -5.85107 0.0366223 1.54195 -4.72939 -0.92195 -3.21222 -0.970163 -4.17874 0.301055 8.47988 -0.391007 -6.96922 -7.33341 -3.20104 2.68496 -9.28873 3.27735 -0.334474 3.67145 -2.16197 -0.325098 3.67145 -2.16129 3.95295 -1.97193 4.01378 -26.7412 5.70155 -6.43121 -56.7817 43.8213 7.95458 15.4447 -11.7453 -29.0809 8.41046 1.20711 -0.560942 0 9.54166e-015 -0 -3.18055e-015 9.54167e-015 -0 21.6541 5.613 8.74207 22.7847 -62.954 -26.9031 -39.526 -1.21999 104.43 -30.3177 -4.33985 3.13201 -3.18055e-015 -3.18055e-015 -1.11319e-014 -3.18055e-015 0 -6.36111e-015 -6.65382 -5.50742 6.2406 
33.926 95.6401 -29.8639 -0.930829 -0.75525 7.16568 -0.228087 1.78483 -0.785895 7.31726 -5.15756 8.8377 -0.544107 12.6915 -6.38924 2.73069 -6.27495 0.0379408 1.46592 -4.53246 -0.887787 -2.59694 -0.22995 -5.63186 0.19603 8.02009 -0.430919 -7.49962 -6.94534 -4.62234 2.82217 -9.62151 3.30588 -0.44165 3.57266 -1.56637 -0.435186 3.57264 -1.56574 4.42114 -3.64966 2.06149 -27.7213 6.53149 -4.5105 -56.9415 45.1797 9.12883 15.5915 -13.718 -30.762 8.42119 1.64237 0.352055 6.36111e-015 -3.18055e-015 -3.18055e-015 3.18055e-015 -3.18056e-015 -0 19.2187 7.9991 10.9264 26.55 -68.7188 -18.0513 -39.8485 -2.14534 107.34 -30.6448 -4.10258 3.10472 6.36111e-015 -1.59028e-015 7.95139e-016 3.18055e-015 0 -1.59028e-015 -6.66032 -3.63769 4.4758 
